# xmcd
# Track frame offsets:
# 182
# 13277
# 23707
# 35942
# 46195
# 59002
# 69427
# 79385
# 89785
# 101840
# 112722
#
# Disc length: 1671 seconds
# Revision: 3
# Processed by: cddbd v1.4PL0 Copyright (c) Steve Scherf et al.
# Submitted via: VisiTrax 2.9.5.180 - For more info visit www.synapsa.com
#
DISCID=9806850b
DTITLE=Bob Wills and his Texas Playboys - Greatest Hits
DYEAR=1990
DGENRE=Country
TTITLE0=Faded Love
TTITLE1=Bubbles in My Beer
TTITLE2=Keeper of My Heart
TTITLE3=Deep in the Heart of Texas
TTITLE4=New San Antonio Rose
TTITLE5=South of the Border
TTITLE6=Across the Alley From the Alamo
TTITLE7=Cimarron
TTITLE8=Heart to Heart Talk
TTITLE9=Image of Me
TTITLE10=Ida Red
EXTD=(C) 1990 Curb Records\nD2-77389\n71518-77389-28
EXTT0=
EXTT1=
EXTT2=
EXTT3=
EXTT4=
EXTT5=
EXTT6=
EXTT7=
EXTT8=
EXTT9=
EXTT10=
PLAYORDER=
